<svg xmlns="http://www.w3.org/2000/svg" viewBox="0 0 128 128">
  <g fill="#0e6f66">
    <rect x="49" y="22" width="6" height="15" rx="3"/>
    <rect x="61" y="22" width="6" height="15" rx="3"/>
    <rect x="73" y="22" width="6" height="15" rx="3"/>
    <rect x="49" y="91" width="6" height="15" rx="3"/>
    <rect x="61" y="91" width="6" height="15" rx="3"/>
    <rect x="73" y="91" width="6" height="15" rx="3"/>
    <rect x="22" y="49" width="15" height="6" rx="3"/>
    <rect x="22" y="61" width="15" height="6" rx="3"/>
    <rect x="22" y="73" width="15" height="6" rx="3"/>
    <rect x="91" y="49" width="15" height="6" rx="3"/>
    <rect x="91" y="61" width="15" height="6" rx="3"/>
    <rect x="91" y="73" width="15" height="6" rx="3"/>
  </g>
  <rect x="34" y="34" width="60" height="60" rx="8" fill="#13877d"/>
  <rect x="48" y="48" width="32" height="32" rx="4" fill="#3ec9bb"/>
</svg>
